<svg id="Layer_1" data-name="Layer 1" xmlns="http://www.w3.org/2000/svg" viewBox="0 0 1452.1317 234.9987"><defs><style>.cls-1{fill:#707685;}.cls-2{fill:#121246;}</style></defs><path class="cls-1" d="M56.011,232.496,34.4191,87.935l-1.2512-9.7H31.29V232.496H0V2.5121H41.3028L61.3286,107.6477l1.5645,12.2031h.626l1.5645-12.2031L85.11,2.5121h41.3027V232.496H95.1236V78.235H93.2464l-1.252,9.7L70.4035,232.496Z" transform="translate(0.0001 -0.0002)"/><path class="cls-1" d="M191.1806,76.0438l.9391,2.1912h.6251l.9391-2.1912L210.5805,2.5121h33.1678l-34.419,132.0451V232.496H175.5352V134.5572L141.1162,2.5121h33.1674Z" transform="translate(0.0001 -0.0002)"/><path class="cls-2" d="M347.0012,64.1538c0-7.51-.3129-15.9576-2.5032-22.5291-2.1911-6.258-5.6325-10.639-10.9516-10.639-8.7608.3131-11.5771,9.387-11.5771,22.8421,0,7.8226,3.4413,15.9586,8.4477,24.72s11.5781,17.8347,18.1487,27.5346a353.499,353.499,0,0,1,21.59,35.0453c5.9455,11.5779,10.0128,23.4676,10.0128,35.9836,0,15.3323-2.5032,29.7255-9.7,40.3647s-18.774,17.5225-37.2354,17.5225c-21.59,0-33.793-8.1356-40.677-20.6518s-8.4478-29.1-8.4478-46.3093l33.1669-3.1291c0,9.7.3131,19.4,2.8163,26.5966,2.19,7.51,5.9455,12.516,13.1422,12.516,10.013,0,13.7682-10.638,13.7682-25.3444,0-7.5105-3.7552-16.2714-8.7618-25.3453-2.8161-4.3812-5.6324-9.0747-8.7608-13.7682-6.5715-9.387-13.7682-20.0258-21.2778-31.6028a131.1787,131.1787,0,0,1-16.5836-35.6712,61.4489,61.4489,0,0,1-2.8163-18.4617c0-12.516,2.8163-25.97,10.013-36.2963A41.0194,41.0194,0,0,1,332.9208.0086c20.3386-.3131,32.229,8.1358,38.8007,20.3385,6.57,12.516,8.4477,27.8484,8.4477,40.6771Z" transform="translate(0.0001 -0.0002)"/><path class="cls-2" d="M486.2382,153.6449v31.6029a62.6522,62.6522,0,0,1-5.6324,25.0321,43.0564,43.0564,0,0,1-13.4544,16.8964c-6.258,5.0066-14.7072,7.8226-25.9713,7.8226s-20.0258-2.8161-26.2842-7.8226A42.1811,42.1811,0,0,1,401.7546,210.28a62.6558,62.6558,0,0,1-5.6326-25.0321V49.7605a62.3633,62.3633,0,0,1,5.6326-24.7193,43.0592,43.0592,0,0,1,13.1413-17.21C421.1539,3.1381,429.9151.0091,441.18.0091s19.7129,3.129,25.9713,7.8225a43.9328,43.9328,0,0,1,13.4544,17.21,62.361,62.361,0,0,1,5.6324,24.7193V81.3633H454.635V49.7605a19.7027,19.7027,0,0,0-5.0064-14.3934,11.1408,11.1408,0,0,0-7.8226-2.5032c-5.9457,0-8.7618,4.38-10.3261,8.4477a33.8175,33.8175,0,0,0-1.5645,8.4489V185.2478a21.5883,21.5883,0,0,0,5.32,14.3933,8.9679,8.9679,0,0,0,6.5717,2.5032c7.1965,0,10.0128-3.7544,11.5769-8.4478a21.87,21.87,0,0,0,1.2513-8.4487V153.6449Z" transform="translate(0.0001 -0.0002)"/><path class="cls-2" d="M506.5733,2.5121h33.7932V232.496H506.5733Z" transform="translate(0.0001 -0.0002)"/><path class="cls-2" d="M565.3949,2.5121H642.682V37.2443H599.188v60.39h31.29v36.9223h-31.29v63.2067h43.494v34.7322H565.3949Z" transform="translate(0.0001 -0.0002)"/><path class="cls-2" d="M697.1242,112.6541l-2.8173-10.6388h-1.8762V232.496H661.453V2.5121h30.0386L724.3462,122.354l2.8171,10.6391h1.8781V2.5121h30.9761V232.496H729.9782Z" transform="translate(0.0001 -0.0002)"/><path class="cls-2" d="M872.9706,153.6449v31.6029a62.6736,62.6736,0,0,1-5.6324,25.0321,43.057,43.057,0,0,1-13.4543,16.8964c-6.2581,5.0066-14.7064,7.8226-25.9714,7.8226s-20.0258-2.8161-26.2844-7.8226A42.1735,42.1735,0,0,1,788.4869,210.28a62.6669,62.6669,0,0,1-5.6324-25.0321V49.7605a62.3755,62.3755,0,0,1,5.6324-24.7193,43.0525,43.0525,0,0,1,13.1412-17.21c6.258-4.6935,15.0194-7.8225,26.2844-7.8225s19.7128,3.129,25.9714,7.8225a43.9326,43.9326,0,0,1,13.4543,17.21,62.3793,62.3793,0,0,1,5.6324,24.7193V81.3633H841.3668V49.7605A19.6981,19.6981,0,0,0,836.36,35.3671a11.1386,11.1386,0,0,0-7.8225-2.5032c-5.9455,0-8.7608,4.38-10.3259,8.4477a33.8078,33.8078,0,0,0-1.5646,8.4489V185.2478a21.5883,21.5883,0,0,0,5.3195,14.3933,8.9661,8.9661,0,0,0,6.5715,2.5032c7.1958,0,10.013-3.7544,11.5762-8.4478a21.8664,21.8664,0,0,0,1.2522-8.4487V153.6449Z" transform="translate(0.0001 -0.0002)"/><path class="cls-2" d="M893.3064,2.5121h77.2881V37.2443H927.1006v60.39h31.29v36.9223h-31.29v63.2067h43.4931v34.7322H893.3064Z" transform="translate(0.0001 -0.0002)"/><path class="cls-2" d="M1077.9129,64.1538c0-7.51-.3129-15.9576-2.5023-22.5291-2.191-6.258-5.6324-10.639-10.9515-10.639-8.7608.3131-11.5781,9.387-11.5781,22.8421,0,7.8226,3.4432,15.9586,8.45,24.72s11.5762,17.8347,18.1477,27.5346a353.8443,353.8443,0,0,1,21.591,35.0453c5.9437,11.5779,10.013,23.4676,10.013,35.9836,0,15.3323-2.5042,29.7255-9.7,40.3647s-18.7756,17.5225-37.2363,17.5225c-21.591,0-33.7931-8.1356-40.6771-20.6518s-8.4477-29.1-8.4477-46.3093l33.1669-3.1291c0,9.7.3132,19.4,2.8173,26.5966,2.1894,7.51,5.9436,12.516,13.1413,12.516,10.0128,0,13.7673-10.638,13.7673-25.3444,0-7.5105-3.7544-16.2714-8.7609-25.3453-2.8153-4.3812-5.6324-9.0747-8.7608-13.7682-6.5714-9.387-13.7673-20.0258-21.2778-31.6028A131.2665,131.2665,0,0,1,1022.53,72.2892a61.4773,61.4773,0,0,1-2.8153-18.4617c0-12.516,2.8153-25.97,10.0131-36.2963A41.0164,41.0164,0,0,1,1063.8339.0086c20.3385-.3131,32.23,8.1358,38.8,20.3385,6.5715,12.516,8.45,27.8484,8.45,40.6771Z" transform="translate(0.0001 -0.0002)"/><path class="cls-2" d="M1189.3028,132.3671H1163.019V232.4953h-33.7931V2.5121h33.7931V97.6343h26.2838V2.5121h33.7931V232.496h-33.7931Z" transform="translate(0.0001 -0.0002)"/><path class="cls-2" d="M1336.05,185.2478a62.6672,62.6672,0,0,1-5.6327,25.0321,43.0531,43.0531,0,0,1-13.4541,16.8964c-6.2581,5.0066-14.7063,7.8226-25.9713,7.8226s-20.0259-2.8161-26.2845-7.8226a42.1733,42.1733,0,0,1-13.1413-16.8964,62.67,62.67,0,0,1-5.6323-25.0321V49.7605a62.3754,62.3754,0,0,1,5.6323-24.7193,43.0527,43.0527,0,0,1,13.1413-17.21c6.2581-4.6935,15.0194-7.8225,26.2845-7.8225s19.7126,3.129,25.9713,7.8225a43.9279,43.9279,0,0,1,13.4541,17.21,62.3724,62.3724,0,0,1,5.6327,24.7193ZM1302.2569,49.7605c0-6.258-1.2522-10.639-4.38-14.3934a9.742,9.742,0,0,0-6.8845-2.5032c-5.9456,0-8.7609,4.38-10.0131,8.4477a23.9775,23.9775,0,0,0-1.2519,8.4489V185.2478c0,6.5706,1.5645,10.9516,4.6935,14.3933a8.9692,8.9692,0,0,0,6.5715,2.5032c5.9455,0,8.7608-3.7544,10.0128-8.4478a21.87,21.87,0,0,0,1.2522-8.4487Z" transform="translate(0.0001 -0.0002)"/><path class="cls-2" d="M1358.8854,2.5121h33.795c14.7063,0,29.4128,3.7545,40.6771,14.3935s18.774,28.161,18.774,54.4449-7.5106,43.4939-18.774,54.1327-25.9716,15.02-40.6771,15.02V232.496h-33.795Zm33.795,103.5705c10.3259,0,16.8957-1.8772,20.6519-7.1967,3.7543-5.0064,4.6936-13.4541,4.6936-26.2834s-.9391-21.9031-4.6936-27.5355-10.326-8.1358-20.6519-8.1358Z" transform="translate(0.0001 -0.0002)"/></svg>